<svg fill="none" height="18" viewBox="0 0 18 18" width="18" xmlns="http://www.w3.org/2000/svg"><path clip-rule="evenodd" d="m14.3142 16.2643c2.2347-1.6376 3.6858-4.2815 3.6858-7.2643 0-4.97056-4.0294-9-9-9-4.97056 0-9 4.02944-9 9 0 2.9829 1.45112 5.6268 3.68592 7.2644 1.4892 1.0912 3.32639 1.7356 5.31408 1.7356 1.9877 0 3.825-.6444 5.3142-1.7357zm-10.70064-1.3493c.19743-2.8027 2.5336-5.015 5.38649-5.015 2.85285 0 5.18905 2.2123 5.38645 5.0149-1.4215 1.2953-3.3118 2.0851-5.3865 2.0851-2.07468 0-3.9649-.7897-5.38644-2.085zm8.08644-8.615c0 1.49117-1.2088 2.7-2.69998 2.7-1.49117 0-2.7-1.20883-2.7-2.7s1.20883-2.7 2.7-2.7c1.49118 0 2.69998 1.20883 2.69998 2.7z" fill-rule="evenodd"/></svg>