<svg width="16" height="16" viewBox="0 0 16 16" fill="none" xmlns="http://www.w3.org/2000/svg">
<path d="M13.7273 7.04545H12.8182V3.40909H6V2.5H12.8182C13.0592 2.50024 13.2903 2.5961 13.4607 2.76653C13.6312 2.93697 13.727 3.16806 13.7273 3.40909V7.04545Z" fill="#7095A0"/>
<path d="M11.4548 9.31792H10.5457V5.68155H3.72754V4.77246H10.5457C10.7868 4.7727 11.0178 4.86856 11.1883 5.03899C11.3587 5.20943 11.4546 5.44052 11.4548 5.68155V9.31792Z" fill="#7095A0"/>
<path d="M8.27273 12.5004H1.90909C1.66806 12.5002 1.43697 12.4043 1.26653 12.2339C1.0961 12.0635 1.00024 11.8324 1 11.5914V7.95499C1.00024 7.71396 1.0961 7.48287 1.26653 7.31243C1.43697 7.142 1.66806 7.04614 1.90909 7.0459H8.27273C8.51376 7.04614 8.74485 7.142 8.91529 7.31243C9.08572 7.48287 9.18158 7.71396 9.18182 7.95499V11.5914C9.18158 11.8324 9.08572 12.0635 8.91529 12.2339C8.74485 12.4043 8.51376 12.5002 8.27273 12.5004ZM1.90909 7.95499V11.5914H8.27318L8.27273 7.95499H1.90909Z" fill="#7095A0"/>
</svg>
