<svg fill="none" height="24" viewBox="0 0 24 24" width="24" xmlns="http://www.w3.org/2000/svg"><path d="m12.2727 6.54545v2.72728l3.6364-3.63637-3.6364-3.63636v2.72727c-4.01815 0-7.2727 3.25455-7.2727 7.27273 0 1.4273.41818 2.7545 1.12727 3.8727l1.32728-1.3272c-.4091-.7546-.63637-1.6273-.63637-2.5455 0-3.00909 2.44546-5.45455 5.45452-5.45455zm6.1455 1.58182-1.3273 1.32728c.4.76365.6364 1.62725.6364 2.54545 0 3.0091-2.4455 5.4545-5.4546 5.4545v-2.7272l-3.63634 3.6363 3.63634 3.6364v-2.7273c4.0182 0 7.2728-3.2545 7.2728-7.2727 0-1.4273-.4182-2.75455-1.1273-3.87273z" class="fillStd"/></svg>