<svg fill="none" height="31" viewBox="0 0 32 31" width="32" xmlns="http://www.w3.org/2000/svg"><rect height="11" rx="5.5" class="strokeStd" width="25" x="3.5" y="13.5"/><rect class="fillStd autoSvg-toggleOn" height="8" rx="4" width="8" x="19" y="15"/><rect class="autoSvg-toggleOff" height="8" rx="4" width="8" x="5" y="15"/><path d="m10.12 9-.63-1.82h-2.01l-.63 1.82h-.69l2.3-6.34h.08l2.3 6.34zm-2.45-2.36h1.64l-.82-2.38zm5.84 2.47c-.66 0-1.16-.19667-1.5-.59s-.51-.95-.51-1.67v-4.08h.78v.07c-.04.04-.0667.08333-.08.13-.0067.04667-.01.12667-.01.24v3.65c0 .53333.1033.94333.31 1.23s.5467.43 1.02.43c.48 0 .8233-.14333 1.03-.43.2133-.28667.32-.70667.32-1.26v-4.06h.67v4.05c0 .76667-.18 1.34-.54 1.72-.3533.38-.85.57-1.49.57zm4.57-.11v-5.61h-1.77v-.63h4.32v.63h-1.84v5.61zm5.42.11c-.7133 0-1.2633-.27667-1.65-.83s-.58-1.34-.58-2.36c0-.99333.1933-1.77333.58-2.34.3933-.56667.9433-.85 1.65-.85s1.2533.28333 1.64.85c.3933.56667.59 1.34667.59 2.34 0 1.02-.1933 1.80667-.58 2.36s-.9367.83-1.65.83zm0-.61c.48 0 .85-.22333 1.11-.67.2667-.44667.4-1.08333.4-1.91 0-.79333-.1333-1.42-.4-1.88-.2667-.46667-.6367-.7-1.11-.7s-.8433.23333-1.11.7c-.2667.46-.4 1.08667-.4 1.88 0 .82667.13 1.46333.39 1.91.2667.44667.64.67 1.12.67z" class="fillStd"/></svg>