<svg width="24" height="24" viewBox="0 0 24 24" fill="none" xmlns="http://www.w3.org/2000/svg">
<path fill-rule="evenodd" clip-rule="evenodd" d="M11.3783 2L16.0193 4.66669V10.0001L11.3783 12.6668L6.73724 10.0001V4.66669L11.3783 2ZM11.3784 3.3335L14.8592 5.33351V9.33354L11.3784 11.3336L7.89765 9.33354V5.33351L11.3784 3.3335ZM21.9999 13.9997L17.3589 11.333L12.7179 13.9997V19.3331L17.3589 21.9998L21.9999 19.3331V13.9997ZM20.8397 14.6665L17.3589 12.6665L13.8781 14.6665V18.6666L17.3589 20.6666L20.8397 18.6666V14.6665ZM6.64102 11.333L11.282 13.9996V19.333L6.64102 21.9997L2 19.333V13.9996L6.64102 11.333ZM6.64105 12.6665L10.1218 14.6665V18.6665L6.64105 20.6665L3.16028 18.6665V14.6665L6.64105 12.6665Z" class="fillStd" />
</svg>
