<svg width="12" height="14" viewBox="0 0 12 14" fill="none" xmlns="http://www.w3.org/2000/svg">
<path d="M5.99665 5.66659L5.99855 5.66658L6.00002 5.66658C6.17683 5.66658 6.3464 5.60415 6.47142 5.49302C6.51967 5.45013 6.55977 5.40134 6.59081 5.34856L8.46665 3.47272C8.56026 3.37988 8.62424 3.26136 8.6505 3.13215C8.67676 3.00294 8.66411 2.86884 8.61416 2.74682C8.56421 2.6248 8.4792 2.52033 8.36987 2.44662C8.26055 2.37291 8.13183 2.33328 7.99998 2.33272C7.91224 2.33222 7.82527 2.34903 7.74404 2.38221C7.66282 2.41539 7.58894 2.46427 7.52665 2.52606L6.66669 3.38977V0.925844C6.66669 0.768679 6.59645 0.617951 6.47142 0.506818C6.3464 0.395686 6.17683 0.333252 6.00002 0.333252C5.82321 0.333252 5.65364 0.395686 5.52862 0.506818C5.40359 0.617951 5.33335 0.768679 5.33335 0.925844V3.38985L4.47331 2.52606C4.34778 2.40052 4.17752 2.33 3.99998 2.33C3.82245 2.33 3.65218 2.40052 3.52665 2.52606C3.40111 2.65159 3.33059 2.82186 3.33059 2.99939C3.33059 3.17693 3.40111 3.34719 3.52665 3.47272L5.41989 5.36596C5.44926 5.41208 5.48571 5.45488 5.52862 5.49302C5.63957 5.59165 5.78561 5.65192 5.94067 5.66423C5.95922 5.6658 5.97789 5.66659 5.99665 5.66659Z" class="fill-std"/>
<path d="M5.37623 8.71675C5.40935 8.63868 5.46096 8.56695 5.52862 8.50682C5.65364 8.39569 5.82321 8.33325 6.00002 8.33325C6.17683 8.33325 6.3464 8.39569 6.47142 8.50682C6.54232 8.56984 6.5956 8.64559 6.62845 8.72803L8.4667 10.5663C8.57592 10.6938 8.63299 10.8579 8.62651 11.0257C8.62003 11.1934 8.55047 11.3526 8.43174 11.4713C8.31301 11.5901 8.15385 11.6596 7.98607 11.6661C7.81828 11.6726 7.65423 11.6155 7.5267 11.5063L6.66669 10.6463V13.074C6.66669 13.2312 6.59645 13.3819 6.47142 13.493C6.3464 13.6042 6.17683 13.6666 6.00002 13.6666C5.82321 13.6666 5.65364 13.6042 5.52862 13.493C5.40359 13.3819 5.33335 13.2312 5.33335 13.074V10.6434L4.4667 11.5063C4.33916 11.6155 4.17511 11.6726 4.00733 11.6661C3.83955 11.6596 3.68039 11.5901 3.56166 11.4713C3.44293 11.3526 3.37337 11.1934 3.36689 11.0257C3.36041 10.8579 3.41748 10.6938 3.5267 10.5663L5.37623 8.71675Z" class="fill-std"/>
<path d="M1.33335 7.66659H10.6667C10.8435 7.66659 11.0131 7.59635 11.1381 7.47132C11.2631 7.3463 11.3334 7.17673 11.3334 6.99992C11.3334 6.82311 11.2631 6.65354 11.1381 6.52852C11.0131 6.40349 10.8435 6.33325 10.6667 6.33325H1.33335C1.15654 6.33325 0.986973 6.40349 0.861949 6.52852C0.736925 6.65354 0.666687 6.82311 0.666687 6.99992C0.666687 7.17673 0.736925 7.3463 0.861949 7.47132C0.986973 7.59635 1.15654 7.66659 1.33335 7.66659Z" class="fill-std" />
</svg>
