<svg class="fillStd" width="16" height="14" viewBox="0 0 16 14" xmlns="http://www.w3.org/2000/svg">
  <path d="M0 0.75C0 0.335786 0.335786 0 0.75 0H2.75C3.16421 0 3.5 0.335786 3.5 0.75C3.5 1.16421 3.16421 1.5 2.75 1.5H0.75C0.335787 1.5 0 1.16421 0 0.75Z" />
  <path d="M5.5 0.75C5.5 0.335786 5.83579 0 6.25 0H15.25C15.6642 0 16 0.335786 16 0.75C16 1.16421 15.6642 1.5 15.25 1.5H6.25C5.83579 1.5 5.5 1.16421 5.5 0.75Z" />
  <path d="M0 4.75C0 4.33579 0.335786 4 0.75 4H2.75C3.16421 4 3.5 4.33579 3.5 4.75C3.5 5.16421 3.16421 5.5 2.75 5.5H0.75C0.335787 5.5 0 5.16421 0 4.75Z" />
  <path d="M5.5 4.75C5.5 4.33579 5.83579 4 6.25 4H15.25C15.6642 4 16 4.33579 16 4.75C16 5.16421 15.6642 5.5 15.25 5.5H6.25C5.83579 5.5 5.5 5.16421 5.5 4.75Z" />
  <path d="M0 8.75C0 8.33579 0.335786 8 0.75 8H2.75C3.16421 8 3.5 8.33579 3.5 8.75C3.5 9.16421 3.16421 9.5 2.75 9.5H0.75C0.335787 9.5 0 9.16421 0 8.75Z" />
  <path d="M5.5 8.75C5.5 8.33579 5.83579 8 6.25 8H15.25C15.6642 8 16 8.33579 16 8.75C16 9.16421 15.6642 9.5 15.25 9.5H6.25C5.83579 9.5 5.5 9.16421 5.5 8.75Z" />
  <path d="M0 12.75C0 12.3358 0.335786 12 0.75 12H2.75C3.16421 12 3.5 12.3358 3.5 12.75C3.5 13.1642 3.16421 13.5 2.75 13.5H0.75C0.335787 13.5 0 13.1642 0 12.75Z" />
  <path d="M5.5 12.75C5.5 12.3358 5.83579 12 6.25 12H15.25C15.6642 12 16 12.3358 16 12.75C16 13.1642 15.6642 13.5 15.25 13.5H6.25C5.83579 13.5 5.5 13.1642 5.5 12.75Z" />
</svg>
