<svg width="12" height="14" viewBox="0 0 12 14" fill="none" xmlns="http://www.w3.org/2000/svg">
<path d="M10.6667 1.66659H1.33335C1.15654 1.66659 0.986973 1.59635 0.861949 1.47132C0.736925 1.3463 0.666687 1.17673 0.666687 0.999919C0.666687 0.823108 0.736925 0.653538 0.861949 0.528514C0.986973 0.40349 1.15654 0.333252 1.33335 0.333252H10.6667C10.8435 0.333252 11.0131 0.40349 11.1381 0.528514C11.2631 0.653538 11.3334 0.823108 11.3334 0.999919C11.3334 1.17673 11.2631 1.3463 11.1381 1.47132C11.0131 1.59635 10.8435 1.66659 10.6667 1.66659Z" class="fill-std"/>
<path d="M7.99998 5.66658C7.91224 5.66709 7.82527 5.65028 7.74404 5.6171C7.66282 5.58392 7.58894 5.53504 7.52665 5.47325L6.66669 4.60954V9.39326L7.5267 8.53325C7.65423 8.42403 7.81828 8.36696 7.98607 8.37344C8.15385 8.37992 8.31301 8.44948 8.43174 8.56821C8.55047 8.68694 8.62003 8.8461 8.62651 9.01388C8.63299 9.18167 8.57592 9.34572 8.4667 9.47325L6.50635 11.4336C6.49524 11.4466 6.48359 11.4592 6.47142 11.4713C6.3464 11.5963 6.17683 11.6666 6.00002 11.6666C6.00016 11.6666 5.99988 11.6666 6.00002 11.6666C5.91243 11.667 5.82518 11.6502 5.74409 11.6171C5.66287 11.5839 5.58899 11.535 5.5267 11.4732L3.5267 9.47325C3.41748 9.34572 3.36041 9.18167 3.36689 9.01388C3.37337 8.8461 3.44293 8.68694 3.56166 8.56821C3.68039 8.44948 3.83955 8.37992 4.00733 8.37344C4.17511 8.36696 4.33916 8.42403 4.4667 8.53325L5.33335 9.39614V4.60946L4.47331 5.47325C4.34778 5.59879 4.17752 5.66931 3.99998 5.66931C3.82245 5.66931 3.65218 5.59879 3.52665 5.47325C3.40111 5.34772 3.33059 5.17745 3.33059 4.99992C3.33059 4.82238 3.40111 4.65212 3.52665 4.52658L5.52665 2.52658C5.65156 2.40242 5.82052 2.33272 5.99665 2.33272C6.03203 2.33272 6.06712 2.33554 6.10163 2.34104C6.24082 2.3625 6.3706 2.42769 6.47142 2.52851C6.48369 2.54078 6.49543 2.55347 6.50662 2.56656L8.46665 4.52658C8.56026 4.61943 8.62424 4.73795 8.6505 4.86716C8.67676 4.99637 8.66411 5.13046 8.61416 5.25249C8.56421 5.37451 8.4792 5.47898 8.36987 5.55269C8.26055 5.6264 8.13183 5.66603 7.99998 5.66658Z" class="fill-std"/>
<path d="M0.861949 13.4713C0.986973 13.5963 1.15654 13.6666 1.33335 13.6666H10.6667C10.8435 13.6666 11.0131 13.5963 11.1381 13.4713C11.2631 13.3463 11.3334 13.1767 11.3334 12.9999C11.3334 12.8231 11.2631 12.6535 11.1381 12.5285C11.0131 12.4035 10.8435 12.3333 10.6667 12.3333H1.33335C1.15654 12.3333 0.986973 12.4035 0.861949 12.5285C0.736925 12.6535 0.666687 12.8231 0.666687 12.9999C0.666687 13.1767 0.736925 13.3463 0.861949 13.4713Z" class="fill-std"/>
</svg>
