<svg width="20" height="20" viewBox="0 0 20 20" fill="none" xmlns="http://www.w3.org/2000/svg">
<path fill-rule="evenodd" clip-rule="evenodd" d="M8.348 16.3256C8.348 16.1632 8.34227 15.7335 8.33899 15.1628C6.48463 15.5757 6.09337 14.2463 6.09337 14.2463C5.79011 13.4566 5.35302 13.2463 5.35302 13.2463C4.74772 12.8221 5.39886 12.8309 5.39886 12.8309C6.068 12.8792 6.41996 13.5355 6.41996 13.5355C7.01462 14.5799 7.98007 14.2786 8.36027 14.1036C8.42084 13.6618 8.59314 13.3605 8.78345 13.1897C7.30315 13.0172 5.74673 12.4306 5.74673 9.81122C5.74673 9.06512 6.00661 8.45498 6.43306 7.97702C6.36471 7.80413 6.13553 7.10922 6.49854 6.16798C6.49854 6.16798 7.05841 5.98419 8.33162 6.86877C8.86326 6.71728 9.43377 6.64091 10.001 6.63839C10.567 6.64091 11.1371 6.71728 11.67 6.86877C12.9424 5.98419 13.5014 6.16798 13.5014 6.16798C13.8653 7.1088 13.6365 7.80371 13.5677 7.97702C13.995 8.45498 14.2528 9.06512 14.2528 9.81122C14.2528 12.4373 12.6939 13.0151 11.2087 13.1842C11.4486 13.3953 11.6614 13.8124 11.6614 14.4503C11.6614 15.3642 11.6528 16.1015 11.6528 16.3256C11.6528 16.5085 11.7731 16.7209 12.1116 16.6542C14.7583 15.7486 16.6666 13.188 16.6666 10.1692C16.6666 6.39375 13.6815 3.33337 9.99978 3.33337C6.31847 3.33337 3.33331 6.39375 3.33331 10.1692C3.33372 13.1888 5.24375 15.7511 7.8929 16.655C8.22604 16.7175 8.348 16.5064 8.348 16.3256Z" fill="#7095A0"/>
</svg>
