<svg width="17" height="17" viewBox="0 0 17 17" fill="none" xmlns="http://www.w3.org/2000/svg">
<path d="M14 12C13.6427 12.0095 13.2946 12.1148 12.992 12.305L10.78 10.15C11.231 9.5805 11.49 8.88282 11.52 8.15701L13.09 8.00001C13.2233 8.33592 13.4742 8.61193 13.7959 8.77663C14.1175 8.94134 14.4881 8.98351 14.8386 8.89529C15.1891 8.80707 15.4955 8.59447 15.7009 8.2971C15.9063 7.99972 15.9966 7.63784 15.955 7.27884C15.9134 6.91984 15.7427 6.58819 15.4748 6.34567C15.2068 6.10315 14.8599 5.96627 14.4985 5.96055C14.1372 5.95482 13.786 6.08062 13.5105 6.31453C13.235 6.54844 13.0539 6.87451 13.001 7.23201L11.41 7.36001C11.3039 6.81302 11.0692 6.29912 10.7253 5.86077C10.3813 5.42242 9.93802 5.07218 9.43198 4.83901L9.73998 4.00001H9.99998C10.4848 3.99636 10.9518 3.81674 11.314 3.49456C11.6763 3.17237 11.9092 2.72956 11.9695 2.2485C12.0297 1.76743 11.9131 1.28087 11.6414 0.879324C11.3698 0.477776 10.9615 0.188583 10.4925 0.0655427C10.0236 -0.0574977 9.5259 -0.00600822 9.09208 0.210433C8.65826 0.426874 8.31782 0.79353 8.13411 1.24219C7.95039 1.69086 7.93591 2.19098 8.09334 2.64952C8.25078 3.10807 8.56941 3.49382 8.98998 3.73501L8.71998 4.59001C8.4727 4.5332 8.2197 4.50502 7.96598 4.50601C7.13598 4.50601 6.37598 4.80201 5.78498 5.29501L2.79098 2.29101C2.96556 2.00918 3.04186 1.67747 3.00796 1.34769C2.97405 1.01791 2.83186 0.708659 2.60359 0.468252C2.37532 0.227844 2.07385 0.0698287 1.74627 0.018898C1.41869 -0.0320327 1.08347 0.0269908 0.792983 0.186745C0.5025 0.3465 0.273123 0.597984 0.140696 0.9019C0.00826931 1.20582 -0.0197465 1.54504 0.0610267 1.86656C0.1418 2.18809 0.326811 2.4738 0.58715 2.67904C0.847488 2.88429 1.16849 2.99751 1.49998 3.00101C1.78098 3.00001 2.04398 2.92201 2.26698 2.78701L5.25998 5.79101C4.76612 6.40547 4.49788 7.17068 4.49998 7.95901V8.16201L3.83998 8.27201C3.64519 7.81637 3.28819 7.44926 2.83817 7.24184C2.38814 7.03441 1.87714 7.00144 1.40418 7.1493C0.93123 7.29717 0.53001 7.61535 0.278277 8.04217C0.0265444 8.469 -0.0577738 8.97407 0.041663 9.45952C0.1411 9.94497 0.417211 10.3762 0.816486 10.6697C1.21576 10.9632 1.70977 11.098 2.20277 11.048C2.69577 10.998 3.15265 10.7668 3.48488 10.3991C3.81711 10.0314 4.00103 9.55354 4.00098 9.05801L3.99998 8.99901L4.62998 8.90201C4.86177 9.7214 5.38257 10.4291 6.09598 10.894L5.53998 12.082C5.36495 12.0302 5.18351 12.0033 5.00098 12.002H4.98398C4.51075 12.0022 4.05292 12.1702 3.69189 12.4762C3.33086 12.7821 3.09001 13.2062 3.01216 13.673C2.93431 14.1398 3.0245 14.619 3.2667 15.0256C3.5089 15.4322 3.88742 15.7397 4.33497 15.8935C4.78251 16.0472 5.2701 16.0373 5.71104 15.8655C6.15198 15.6937 6.51771 15.3711 6.74323 14.9551C6.96874 14.539 7.03941 14.0565 6.9427 13.5932C6.84598 13.13 6.58813 12.7161 6.21498 12.425L6.78098 11.272C7.14498 11.418 7.56798 11.503 8.00998 11.503C8.85698 11.503 9.63098 11.192 10.226 10.679L12.402 12.803C12.1317 13.1634 11.991 13.6046 12.0027 14.055C12.0144 14.5054 12.1778 14.9386 12.4665 15.2845C12.7552 15.6304 13.1522 15.8687 13.5932 15.9608C14.0342 16.0529 14.4934 15.9933 14.8964 15.7919C15.2994 15.5904 15.6225 15.2587 15.8135 14.8507C16.0044 14.4426 16.052 13.982 15.9485 13.5435C15.845 13.105 15.5964 12.7143 15.2431 12.4347C14.8899 12.1551 14.4525 12.003 14.002 12.003L14 12ZM4.99998 15C4.73477 15 4.48041 14.8946 4.29287 14.7071C4.10534 14.5196 3.99998 14.2652 3.99998 14C3.99998 13.7348 4.10534 13.4804 4.29287 13.2929C4.48041 13.1054 4.73477 13 4.99998 13C5.2652 13 5.51955 13.1054 5.70709 13.2929C5.89462 13.4804 5.99998 13.7348 5.99998 14C5.99998 14.2652 5.89462 14.5196 5.70709 14.7071C5.51955 14.8946 5.2652 15 4.99998 15ZM7.99998 10.5C7.33694 10.5 6.70106 10.2366 6.23221 9.76777C5.76337 9.29893 5.49998 8.66305 5.49998 8.00001C5.49998 7.33697 5.76337 6.70108 6.23221 6.23224C6.70106 5.7634 7.33694 5.50001 7.99998 5.50001C8.66302 5.50001 9.29891 5.7634 9.76775 6.23224C10.2366 6.70108 10.5 7.33697 10.5 8.00001C10.5 8.66305 10.2366 9.29893 9.76775 9.76777C9.29891 10.2366 8.66302 10.5 7.99998 10.5Z" fill="#7095A0"/>
</svg>
