<svg width="17" height="17" viewBox="0 0 17 17" fill="none" xmlns="http://www.w3.org/2000/svg">
<path fill-rule="evenodd" clip-rule="evenodd" d="M6.00008 13.6667C6.73341 13.6667 7.33341 13.0667 7.33341 12.3334H4.66675C4.66675 13.0667 5.26675 13.6667 6.00008 13.6667ZM10.0001 9.66669V6.33335C10.0001 4.28669 8.91341 2.57335 7.00008 2.12002V1.66669C7.00008 1.11335 6.55341 0.666687 6.00008 0.666687C5.44675 0.666687 5.00008 1.11335 5.00008 1.66669V2.12002C3.09341 2.57335 2.00008 4.28002 2.00008 6.33335V9.66669L0.666748 11V11.6667H11.3334V11L10.0001 9.66669ZM8.66675 10.3334H3.33341V6.33335C3.33341 4.68002 4.34008 3.33335 6.00008 3.33335C7.66008 3.33335 8.66675 4.68002 8.66675 6.33335V10.3334Z" fill="#586E75"/>
</svg>

