<svg height="14" viewBox="0 0 14 14" width="14" xmlns="http://www.w3.org/2000/svg"><g fill="#fff" fill-rule="evenodd"><path d="m7 13c-3.3137085 0-6-2.6862915-6-6s2.6862915-6 6-6 6 2.6862915 6 6-2.6862915 6-6 6zm0-5c.55228475 0 1-.44771525 1-1s-.44771525-1-1-1-1 .44771525-1 1 .44771525 1 1 1z" fill-opacity=".3" stroke="#002b36" stroke-opacity=".8" stroke-width="2"/><path d="m7 2c2.76142375 0 5 2.23857625 5 5 0 .10784652-.0034144.21489557-.0101411.32104492h-3.01548954c.01686554-.10452467.02563064-.2117612.02563064-.32104492 0-1.1045695-.8954305-2-2-2z" fill-opacity=".8"/></g></svg>