<svg height="10" viewBox="0 0 10 10" width="10" xmlns="http://www.w3.org/2000/svg"><path d="m9.65354132 6.83246601-1.85421206-.75144721c.12960419-.33538852.20067074-.69990442.20067074-1.0810188 0-1.65685425-1.34314575-3-3-3s-3 1.34314575-3 3 1.34314575 3 3 3c.25896905 0 .51027414-.03281333.74998437-.09450909l.37116491 1.96832235c-.360418.08256902-.73568991.12618674-1.12114928.12618674-2.76142375 0-5-2.23857625-5-5s2.23857625-5 5-5 5 2.23857625 5 5c0 .64686359-.12283756 1.26503693-.34645868 1.83246601z" fill-rule="evenodd"/></svg>