<svg height="28" viewBox="0 0 28 28" width="28" xmlns="http://www.w3.org/2000/svg"><g fill="none" fill-rule="evenodd"><path d="m14 28c-7.7319865 0-14-6.2680135-14-14s6.2680135-14 14-14 14 6.2680135 14 14-6.2680135 14-14 14zm0-1.9999996c6.627417 0 12-5.372583 12-12 0-6.62741698-5.372583-11.99999998-12-11.99999998s-12 5.372583-12 11.99999998c0 6.627417 5.372583 12 12 12z" fill="#002b36"/><path d="m14 26c-6.627417 0-12-5.372583-12-12s5.372583-12 12-12 12 5.372583 12 12-5.372583 12-12 12zm0-2c5.5228475 0 10-4.4771525 10-10s-4.4771525-10-10-10-10 4.4771525-10 10 4.4771525 10 10 10z" fill="#586e75"/><path d="m14 2c6.627417 0 12 5.372583 12 12l-2 .0000003c0-5.5228478-4.4771525-10.0000003-10-10.0000003z" fill="#fff" fill-opacity=".8"/></g></svg>