<svg width="16" height="16" viewBox="0 0 16 16" fill="none" xmlns="http://www.w3.org/2000/svg">
<path d="M11 2C11.7679 2 12.5351 2.29314 13.1213 2.87856C13.3999 3.15719 13.6208 3.48796 13.7715 3.85198C13.9222 4.216 13.9998 4.60614 13.9997 5.00013C13.9996 5.39412 13.9219 5.78423 13.7711 6.14819C13.6202 6.51215 13.3991 6.84283 13.1205 7.12135L11.6822 8.55961C11.6779 8.04105 11.5785 7.52763 11.3874 7.03649L12.2119 6.21193C12.8805 5.54423 12.8805 4.45653 12.2119 3.78797C11.8879 3.46398 11.4577 3.28569 11 3.28569C10.5422 3.28569 10.112 3.46398 9.78711 3.78883L7.36315 6.21279C7.04199 6.53437 6.86159 6.97028 6.86159 7.42477C6.86159 7.87926 7.04199 8.31517 7.36315 8.63675C7.46753 8.73739 7.58382 8.8249 7.70943 8.89732L6.78802 9.81873C6.77487 9.80885 6.76169 9.79899 6.74852 9.78914C6.64748 9.71356 6.54634 9.63791 6.45459 9.54617C6.17599 9.26759 5.95499 8.93687 5.80421 8.57287C5.65343 8.20888 5.57582 7.81876 5.57582 7.42477C5.57582 7.03079 5.65343 6.64066 5.80421 6.27667C5.95499 5.91268 6.17599 5.58195 6.45459 5.30338L8.87856 2.87856C9.46483 2.29314 10.232 2 11 2Z" class="fillStd" />
<path d="M9.23575 6.1996C9.34201 6.27856 9.44894 6.35801 9.54546 6.45454C9.82407 6.73311 10.0451 7.06384 10.1959 7.42783C10.3466 7.79182 10.4242 8.18195 10.4242 8.57593C10.4242 8.96992 10.3466 9.36005 10.1959 9.72404C10.0451 10.088 9.82407 10.4188 9.54546 10.6973L7.1215 13.1213C6.84292 13.3999 6.51219 13.6209 6.1482 13.7716C5.78421 13.9224 5.39409 14 5.00011 14C4.60613 14 4.216 13.9224 3.85202 13.7716C3.48803 13.6209 3.1573 13.3999 2.87871 13.1213C2.60013 12.8427 2.37914 12.512 2.22837 12.148C2.0776 11.784 2 11.3939 2 10.9999C2 10.6059 2.0776 10.2158 2.22837 9.8518C2.37914 9.48782 2.60013 9.15709 2.87871 8.8785L4.31783 7.44024C4.32217 7.9617 4.42211 8.47794 4.61268 8.96336L3.78812 9.78792C3.46696 10.1095 3.28657 10.5454 3.28657 10.9999C3.28657 11.4544 3.46696 11.8903 3.78812 12.2119C4.11212 12.5359 4.5424 12.7142 5.00011 12.7142C5.45781 12.7142 5.88809 12.5359 6.21294 12.2119L8.63691 9.78792C9.30547 9.12021 9.30547 8.03251 8.63691 7.36395C8.53297 7.2628 8.41661 7.17524 8.29063 7.10339L9.21204 6.18197C9.21994 6.18785 9.22784 6.19373 9.23575 6.1996Z" class="fillStd" />
</svg>
