<svg fill="none" height="39" viewBox="0 0 118 39" width="118" xmlns="http://www.w3.org/2000/svg"><path d="m14 34c7.732 0 14-6.268 14-14s-6.268-14-14-14c-7.73199 0-14 6.268-14 14s6.26801 14 14 14z" fill="#20ba31"/><path d="m12.7176 12.769h-5.33816c-.3374 0-.6104.273-.6104.6104v.2184c0 .112.0308.2226.0896.3178l3.1248 5.1198c.11056.182.30796.2926.52076.2926h2.2134c.3374 0 .6104-.273.6104-.6104v-5.3382c0-.3374-.273-.6104-.6104-.6104zm0 7.903h-5.33816c-.3374 0-.6104.273-.6104.6104v5.3382c0 .3374.273.6104.6104.6104h.2184c.112 0 .2226-.0308.3178-.0896l5.11976-3.1248c.182-.1106.2926-.308.2926-.5208v-2.2134c0-.3374-.273-.6104-.6104-.6104zm7.903-7.903h-.2184c-.112 0-.2226.0308-.3178.0896l-5.1198 3.1248c-.182.1106-.2926.308-.2926.5208v2.2134c0 .3374.273.6104.6104.6104h5.3382c.3374 0 .6104-.273.6104-.6104v-5.3382c0-.3374-.273-.6104-.6104-.6104zm-2.604 8.1956c-.1106-.182-.308-.2926-.5208-.2926h-2.2134c-.3374 0-.6104.273-.6104.6104v5.3382c0 .3374.273.6104.6104.6104h5.3382c.3374 0 .6104-.273.6104-.6104v-.2184c0-.112-.0308-.2226-.0896-.3178z" fill="#fff"/><path d="m52.1069 15.96c-1.176-.588-2.856-1.036-4.536-1.036-3.78 0-5.936 2.744-5.936 6.692 0 3.836 2.016 6.608 5.936 6.608 1.932 0 3.472-.644 4.704-1.568l-.364-.616h-.308c-1.064.784-2.464 1.4-4.06 1.4-3.388 0-5.04-2.632-5.04-5.88s1.708-5.852 5.124-5.852c1.484 0 2.912.42 4.2 1.064h.28zm14.0775 10.892-.364-.588h-.308c-.896.756-2.072 1.176-3.248 1.176-1.54 0-2.436-.952-2.436-2.688v-16.688h-5.32v.756h4.452v15.82c0 2.156 1.008 3.584 3.304 3.584 1.484 0 2.772-.504 3.92-1.372zm14.0477-5.292c0-3.892-2.184-6.636-5.572-6.636s-5.572 2.744-5.572 6.636 2.128 6.664 5.544 6.664 5.6-2.772 5.6-6.664zm-.868 0c0 3.248-1.736 5.88-4.704 5.88s-4.704-2.632-4.704-5.88 1.792-5.852 4.704-5.852 4.704 2.604 4.704 5.852zm5.9519-6.44v8.484c0 3.08 1.624 4.62 4.256 4.62 2.212 0 3.808-1.092 4.9-2.156l.308 1.96h.56v-12.908h-.868v10.192c-1.176 1.008-2.8 2.128-4.816 2.128-2.212 0-3.472-1.344-3.472-3.808v-8.512zm24.824-7.056v8.568c-.784-.756-2.128-1.708-4.116-1.708-3.276 0-5.6 2.576-5.6 6.776 0 3.78 1.876 6.524 5.404 6.524 2.016 0 3.64-1.204 4.312-2.184l.308 1.988h.56v-19.964zm-4.032 7.644c1.68 0 2.996.84 4.032 1.764v7.784c-.84 1.008-2.268 2.184-4.2 2.184-3.136 0-4.648-2.632-4.648-5.768 0-3.668 2.072-5.964 4.816-5.964z" fill="#001b20"/></svg>