<svg width="115" height="38" viewBox="0 0 115 38" fill="none" xmlns="http://www.w3.org/2000/svg">
<path d="M104.68 0H104.286C103.678 0 103.186 0.486093 103.186 1.08624V10.5871C103.186 11.1872 103.678 11.6733 104.286 11.6733H113.901C114.508 11.6733 115 11.1872 115 10.5871V6.6478C115 6.26924 114.8 5.91785 114.473 5.72069L105.253 0.159134C105.08 0.0548552 104.882 0 104.68 0Z" class="fillStd" />
<path d="M0 6.6478V10.5871C0 11.1872 0.491932 11.6733 1.09929 11.6733H10.7142C11.3216 11.6733 11.8135 11.1872 11.8135 10.5871V1.08624C11.8135 0.486093 11.3216 0 10.7142 0H10.3201C10.1179 0 9.91999 0.0548552 9.7474 0.159134L0.52656 5.72069C0.199521 5.91785 0 6.26924 0 6.6478Z" class="fillStd" />
<path d="M39.2276 1.08624V1.47566C39.2276 1.67553 39.2831 1.87105 39.3886 2.04159L45.017 11.153C45.2165 11.4761 45.5721 11.6733 45.9553 11.6733H50.9471C51.5545 11.6733 52.0464 11.1872 52.0464 10.5871V1.08624C52.0464 0.486093 51.5545 0 50.9471 0H40.3269C39.7195 0 39.2276 0.486093 39.2276 1.08624Z" class="fillStd" />
<path d="M83.6494 31.3522V27.4129C83.6494 26.8128 83.1574 26.3267 82.5501 26.3267H72.9351C72.3278 26.3267 71.8358 26.8128 71.8358 27.4129V36.9137C71.8358 37.5139 72.3278 38 72.9351 38H73.3292C73.5315 38 73.7294 37.9451 73.902 37.8409L83.1228 32.2793C83.4498 32.0816 83.6494 31.7307 83.6494 31.3522Z" class="fillStd"/>
<g opacity="0.64">
<path d="M35.2113 1.08624V10.4942C35.2113 11.0943 34.7194 11.5804 34.112 11.5804H27.9324C27.325 11.5804 26.8331 12.0665 26.8331 12.6667V36.9138C26.8331 37.5139 26.3412 38 25.7338 38H15.1136C14.5062 38 14.0143 37.5139 14.0143 36.9138V1.08624C14.0143 0.486093 14.5062 0 15.1136 0H34.112C34.7189 0 35.2113 0.486093 35.2113 1.08624Z" class="fillStd" />
<path d="M52.0459 15.6408V36.9138C52.0459 37.5139 51.5539 38 50.9466 38H40.3263C39.719 38 39.2271 37.5139 39.2271 36.9138V15.6408C39.2271 15.0407 39.719 14.5546 40.3263 14.5546H50.9466C51.5539 14.5546 52.0459 15.0412 52.0459 15.6408Z" class="fillStd"/>
<path d="M69.6356 26.4196V36.9138C69.6356 37.5139 69.1437 38 68.5363 38H57.9051C57.2977 38 56.8058 37.5139 56.8058 36.9138V1.08624C56.8058 0.486093 57.2977 0 57.9051 0H68.5253C69.1327 0 69.6246 0.486093 69.6246 1.08624V26.4196H69.6356Z" class="fillStd" />
<path d="M100.986 1.08624V36.9138C100.986 37.5139 100.494 38 99.8864 38H89.2662C88.6588 38 88.1669 37.5139 88.1669 36.9138V12.6667C88.1669 12.0665 87.6749 11.5804 87.0676 11.5804H80.8885C80.2811 11.5804 79.7892 11.0943 79.7892 10.4942V1.08624C79.7892 0.486093 80.2811 0 80.8885 0H99.8869C100.494 0 100.986 0.486093 100.986 1.08624Z" class="fillStd" />
</g>
</svg>
