<svg width="115" height="38" viewBox="0 0 599 201" fill="none" xmlns="http://www.w3.org/2000/svg">
<path d="M545.13 0.0600586H543.08C539.92 0.0600586 537.36 2.62006 537.36 5.78006V55.7801C537.36 58.9401 539.92 61.5001 543.08 61.5001H593.08C596.24 61.5001 598.8 58.9401 598.8 55.7801V35.0401C598.8 33.0501 597.76 31.2001 596.06 30.1601L548.11 0.890059C547.21 0.350059 546.18 0.0600586 545.13 0.0600586Z" class="u-fillGreen notch notch--1"/>
<path d="M0.719971 35.0401V55.7701C0.719971 58.93 3.27997 61.4901 6.43997 61.4901H56.44C59.6 61.4901 62.16 58.93 62.16 55.7701V5.77005C62.16 2.61005 59.6 0.0500488 56.44 0.0500488H54.39C53.34 0.0500488 52.31 0.340049 51.41 0.890049L3.45996 30.16C1.75996 31.2001 0.719971 33.05 0.719971 35.0401Z" class="u-fillGreen notch notch--2"/>
<path d="M204.73 5.77005V7.82005C204.73 8.87005 205.02 9.90005 205.57 10.8L234.84 58.75C235.88 60.4501 237.73 61.4901 239.72 61.4901H265.68C268.84 61.4901 271.4 58.93 271.4 55.7701V5.77005C271.4 2.61005 268.84 0.0500488 265.68 0.0500488H210.45C207.29 0.0600488 204.73 2.62005 204.73 5.77005Z" class="u-fillGreen notch notch--3" />
<path d="M435.76 165.07V144.34C435.76 141.18 433.2 138.62 430.04 138.62H380.04C376.88 138.62 374.32 141.18 374.32 144.34V194.34C374.32 197.5 376.88 200.06 380.04 200.06H382.09C383.14 200.06 384.17 199.77 385.07 199.22L433.02 169.95C434.72 168.91 435.76 167.06 435.76 165.07Z" class="u-fillGreen notch notch--4" />
<path d="M357.13 200.06H301.9C298.74 200.06 296.18 197.5 296.18 194.34V5.72C296.18 2.56 298.74 0 301.9 0H357.13C360.29 0 362.85 2.56 362.85 5.72V194.34C362.85 197.49 360.29 200.06 357.13 200.06Z" class="u-fillGreenLightest"/>
<path d="M525.92 194.34V5.77005C525.92 2.62005 523.36 0.0600488 520.2 0.0500488H421.4C418.24 0.0500488 415.68 2.61005 415.68 5.77005V55.28C415.68 58.44 418.24 61 421.4 61H453.53C456.69 61 459.25 63.56 459.25 66.72V194.34C459.25 197.5 461.81 200.06 464.97 200.06H520.2C523.36 200.06 525.92 197.5 525.92 194.34Z" class="u-fillGreenLightest"/>
<path d="M183.84 55.2901V5.77006C183.84 2.62006 181.28 0.0600586 178.12 0.0600586H79.31C76.15 0.0600586 73.59 2.62006 73.59 5.78006V194.35C73.59 197.51 76.15 200.07 79.31 200.07H134.54C137.7 200.07 140.26 197.51 140.26 194.35V66.7301C140.26 63.5701 142.82 61.0101 145.98 61.0101H178.12C181.28 61.0101 183.84 58.4501 183.84 55.2901Z" class="u-fillGreenLightest"/>
<path d="M209.23 200.06H266.91C269.39 200.06 271.4 198.04 271.4 195.56V81.15C271.4 78.67 269.39 76.66 266.91 76.66H209.23C206.75 76.66 204.74 78.67 204.74 81.15V195.57C204.74 198.05 206.75 200.06 209.23 200.06Z" class="u-fillGreenLightest"/>
</svg>
