<svg fill="none" height="24" viewBox="0 0 24 24" width="24" xmlns="http://www.w3.org/2000/svg"><path d="m0 0h24v24h-24z"/><path d="m12 23.8878c6.6274 0 12-5.3459 12-11.9403 0-6.59447-5.3726-11.94032837-12-11.94032837-6.62742 0-12 5.34585837-12 11.94032837 0 6.5944 5.37258 11.9403 12 11.9403z" fill="#20ba31"/><path clip-rule="evenodd" d="m10.9008 11.3743h-1.8972c-.1824 0-.3516-.0955-.4464-.2507l-2.6784-4.36658c-.0504-.08119-.0768-.17552-.0768-.27104v-.18627c0-.28776.234-.5206.5232-.5206h4.5756c.2892 0 .5232.23284.5232.5206v4.55399c0 .2878-.234.5206-.5232.5206zm1.6752-.5206v-1.88772c0-.1815.0948-.34985.2508-.44537l4.3884-2.66508c.0816-.05015.1764-.07642.2724-.07642h.1872c.2892 0 .5232.23284.5232.5206v4.55399c0 .2878-.234.5206-.5232.5206h-4.5756c-.2892 0-.5232-.2328-.5232-.5206zm-1.152 4.0741v-1.8878c0-.2878-.234-.5206-.5232-.5206h-4.5756c-.2892 0-.5232.2328-.5232.5206v4.5528c0 .2878.234.5206.5232.5206h.1872c.096 0 .1908-.0262.2724-.0764l4.3884-2.665c.156-.0944.2508-.2627.2508-.4442zm1.6752-2.4084h1.8972c.1824 0 .3516.0955.4464.2496l2.6784 4.3665c.0504.0812.0768.1756.0768.2711v.1862c0 .2878-.234.5206-.5232.5206h-4.5756c-.2892 0-.5232-.2328-.5232-.5206v-4.5528c0-.2878.234-.5206.5232-.5206z" fill="#fff" fill-rule="evenodd"/></svg>