<svg height="57" viewBox="0 0 164 57" width="164" xmlns="http://www.w3.org/2000/svg" xmlns:xlink="http://www.w3.org/1999/xlink"><filter id="logo-wordmark-gray-filter" height="113.5%" width="104.4%" x="-2.2%" y="-4.7%"><feOffset dx="0" dy="1" in="SourceAlpha" result="shadowOffsetOuter1"/><feGaussianBlur in="shadowOffsetOuter1" result="shadowBlurOuter1" stdDeviation="1"/><feColorMatrix in="shadowBlurOuter1" result="shadowMatrixOuter1" type="matrix" values="0 0 0 0 0   0 0 0 0 0   0 0 0 0 0  0 0 0 0.5 0"/><feMerge><feMergeNode in="shadowMatrixOuter1"/><feMergeNode in="SourceGraphic"/></feMerge></filter><g fill="#586e75" filter="url(#logo-wordmark-gray-filter)" opacity=".8" transform="translate(2 1)"><path d="m145.641739 0h-.548174c-.845913 0-1.529043.6763033-1.529043 1.51129043v13.21858787c0 .8349217.68313 1.5112347 1.529043 1.5112347h13.377392c.844521 0 1.529043-.676313 1.529043-1.5112347v-5.48076526c0-.52669217-.27687-1.01558261-.733217-1.28989217l-12.827826-7.73781704c-.240696-.14508355-.516174-.22140383-.797218-.22140383z"/><path d="m0 9.24911304v5.48076526c0 .8349217.68442713 1.5112347 1.52944696 1.5112347h13.37726604c.8450783 0 1.5294609-.676313 1.5294609-1.5112347v-13.21858787c0-.83498713-.6843826-1.51129043-1.5294609-1.51129043h-.548313c-.2813217 0-.5566748.07632028-.7968.22140383l-12.82899478 7.73781704c-.45501079.27430956-.73260522.7632-.73260522 1.28989217z"/><path d="m54.5773913 1.51129043v.54180174c0 .27808.0773565.55010783.2241391.78738087l7.8306783 12.67674436c.2777043.4495304.7724522.7238956 1.3054609.7238956h6.9452521c.8449392 0 1.5294609-.676313 1.5294609-1.5112347v-13.21858787c0-.83498713-.6845217-1.51129043-1.5294609-1.51129043h-14.7760695c-.8449392 0-1.5294609.6763033-1.5294609 1.51129043z"/><path d="m116.381913 43.6204522v-5.4807652c0-.8349218-.684522-1.5112348-1.529461-1.5112348h-13.377391c-.844939 0-1.529461.676313-1.529461 1.5112348v13.2185043c0 .8350609.684522 1.5113739 1.529461 1.5113739h.548313c.281461 0 .5568-.0763826.7968-.2213565l12.829078-7.7378783c.454957-.2750608.732661-.7632695.732661-1.2898782z"/><g opacity=".64" transform="translate(19.478261)"><path d="m29.5116522 1.51129043v13.08933567c0 .8349217-.6845218 1.5112348-1.5294609 1.5112348h-8.5978435c-.8449391 0-1.5294608.676313-1.5294608 1.5113739v33.7350956c0 .8349218-.6843827 1.5112348-1.5294609 1.5112348h-14.77593045c-.84507826 0-1.52946087-.676313-1.52946087-1.5112348v-49.84703997c0-.83498713.68438261-1.51129043 1.52946087-1.51129043h26.43269565c.8442435 0 1.5294609.6763033 1.5294609 1.51129043z"/><path d="m52.9334261 21.761113v29.5972174c0 .8349218-.6845218 1.5112348-1.5294609 1.5112348h-14.7760695c-.8449392 0-1.5293218-.676313-1.5293218-1.5112348v-29.5972174c0-.8349217.6843826-1.5112347 1.5293218-1.5112347h14.7760695c.8449391 0 1.5294609.6770087 1.5294609 1.5112347z"/><path d="m77.4061913 36.7577043v14.6006261c0 .8349218-.6843826 1.5112348-1.5294609 1.5112348h-14.7912347c-.8450783 0-1.5294609-.676313-1.5294609-1.5112348v-49.84703997c0-.83498713.6843826-1.51129043 1.5294609-1.51129043h14.7759304c.8450782 0 1.5294609.6763033 1.5294609 1.51129043v35.24641387z"/><path d="m121.024 1.51129043v49.84703997c0 .8349218-.684522 1.5112348-1.529739 1.5112348h-14.775931c-.845078 0-1.52946-.676313-1.52946-1.5112348v-33.7350956c0-.8350609-.684383-1.5113739-1.529461-1.5113739h-8.597009c-.8450783 0-1.5294609-.6763131-1.5294609-1.5112348v-13.08933567c0-.83498713.6843826-1.51129043 1.5294609-1.51129043h26.432696c.844382 0 1.528904.6763033 1.528904 1.51129043z"/></g></g></svg>
