<svg width="24" height="24" viewBox="0 0 24 24" fill="none" xmlns="http://www.w3.org/2000/svg">
<path class="fillStd" d="M20 12.016C20 13.4666 19.6427 14.8053 18.928 16.0319C18.2133 17.2586 17.2427 18.2293 16.016 18.9439C14.7893 19.6586 13.4507 20.0159 12 20.0159C10.5493 20.0159 9.21067 19.6586 7.984 18.9439C6.75733 18.2293 5.78667 17.2586 5.072 16.0319C4.35733 14.8053 4 13.4666 4 12.016C4 10.5653 4.35733 9.22664 5.072 7.99998C5.78667 6.77331 6.75733 5.80265 7.984 5.08799C9.21067 4.37332 10.5493 4.01599 12 4.01599C13.4507 4.01599 14.7893 4.37332 16.016 5.08799C17.2427 5.80265 18.2133 6.77331 18.928 7.99998C19.6427 9.22664 20 10.5653 20 12.016ZM18.128 12.016C18.128 10.3306 17.528 8.88797 16.328 7.68798C15.128 6.48798 13.6853 5.88798 12 5.88798C10.656 5.88798 9.45067 6.28265 8.384 7.07198L16.944 15.6319C17.7333 14.5653 18.128 13.36 18.128 12.016ZM15.616 16.9599L7.056 8.39997C6.26667 9.46664 5.872 10.672 5.872 12.016C5.872 13.7013 6.472 15.1439 7.672 16.3439C8.872 17.5439 10.3147 18.1439 12 18.1439C13.344 18.1439 14.5493 17.7493 15.616 16.9599Z" fill="#586E75"/>
</svg>
