<svg width="18" height="18" viewBox="0 0 18 18" fill="none" xmlns="http://www.w3.org/2000/svg">
<path d="M2.63603 4.05025C2.24551 3.65972 2.24551 3.02656 2.63603 2.63603C3.02656 2.24551 3.65972 2.24551 4.05024 2.63603L6.17157 4.75735C6.56209 5.14788 6.56209 5.78104 6.17157 6.17157C5.78104 6.56209 5.14788 6.56209 4.75735 6.17157L2.63603 4.05025Z" class="fillStd"/>
<path d="M11.8284 13.2426C11.4379 12.8521 11.4379 12.2189 11.8284 11.8284C12.2189 11.4379 12.8521 11.4379 13.2426 11.8284L15.3639 13.9497C15.7545 14.3403 15.7545 14.9734 15.3639 15.3639C14.9734 15.7545 14.3403 15.7545 13.9497 15.3639L11.8284 13.2426Z" class="fillStd"/>
<path d="M1 10C0.447715 10 0 9.55228 0 9C0 8.44772 0.447715 8 1 8H4C4.55228 8 5 8.44772 5 9C5 9.55228 4.55228 10 4 10H1Z" class="fillStd"/>
<path d="M14 10C13.4477 10 13 9.55228 13 9C13 8.44772 13.4477 8 14 8H17C17.5523 8 18 8.44772 18 9C18 9.55228 17.5523 10 17 10H14Z" class="fillStd"/>
<path d="M13.9498 2.63603C14.3403 2.24551 14.9734 2.24551 15.364 2.63603C15.7545 3.02656 15.7545 3.65972 15.364 4.05024L13.2426 6.17157C12.8521 6.56209 12.219 6.56209 11.8284 6.17157C11.4379 5.78104 11.4379 5.14788 11.8284 4.75735L13.9498 2.63603Z" class="fillStd"/>
<path d="M4.75737 11.8284C5.1479 11.4379 5.78106 11.4379 6.17158 11.8284C6.56211 12.2189 6.56211 12.8521 6.17158 13.2426L4.05026 15.3639C3.65974 15.7545 3.02657 15.7545 2.63605 15.3639C2.24553 14.9734 2.24553 14.3403 2.63605 13.9497L4.75737 11.8284Z" class="fillStd"/>
<path d="M8 1C8 0.447715 8.44772 0 9 0C9.55228 0 10 0.447715 10 1V4C10 4.55228 9.55228 5 9 5C8.44772 5 8 4.55228 8 4V1Z" class="fillStd"/>
<path d="M8 14C8 13.4477 8.44772 13 9 13C9.55228 13 10 13.4477 10 14V17C10 17.5523 9.55228 18 9 18C8.44772 18 8 17.5523 8 17V14Z" class="fillStd"/>
</svg>

