<svg width="24" height="24" viewBox="0 0 24 24" fill="none" xmlns="http://www.w3.org/2000/svg">
<path fill-rule="evenodd" clip-rule="evenodd" d="M16.0532 3C16.3293 3 16.5627 3.22678 16.5002 3.49574C16.2555 4.54724 15.2457 5.41657 13.8882 5.80859L14.2959 9.75254C15.6419 10.5962 16.6446 12.0843 16.9758 13.5237C17.0997 14.0619 16.6415 14.5143 16.0892 14.5143H12.8045V18.5226L12.2426 20.8092C12.1803 21.063 11.8194 21.063 11.7571 20.8092L11.1953 18.5226V14.5143H7.90705C7.35477 14.5143 6.89654 14.0619 7.0204 13.5237C7.35171 12.0839 8.35494 10.5954 9.70144 9.75183L10.1276 5.62992C9.03419 5.18487 8.24445 4.40902 8.03199 3.49574C7.96941 3.22678 8.20282 3 8.47897 3H12.2661H16.0532Z" />
</svg>
