<svg width="24" height="24" viewBox="0 0 24 24" fill="none" xmlns="http://www.w3.org/2000/svg">
<path d="M11.6667 17C11.8683 17 12.0333 16.8453 12.0333 16.6562V12.875H14.9667C15.1683 12.875 15.3333 12.7203 15.3333 12.5312C15.3333 11.6994 14.7027 11.0084 13.8667 10.8469V6.6875H14.2333C14.435 6.6875 14.6 6.53281 14.6 6.34375C14.6 6.15469 14.435 6 14.2333 6H13.5H9.83333H9.1C8.89833 6 8.73333 6.15469 8.73333 6.34375C8.73333 6.53281 8.89833 6.6875 9.1 6.6875H9.46667V10.8469C8.63067 11.005 8 11.6994 8 12.5312C8 12.7203 8.165 12.875 8.36667 12.875H11.3V16.6562C11.3 16.8453 11.465 17 11.6667 17Z"/>
</svg>
