<svg width="20" height="20" viewBox="0 0 20 20" fill="none" xmlns="http://www.w3.org/2000/svg">
<path d="M13.75 3.33329C13.75 2.41288 13.0038 1.66663 12.0834 1.66663C11.1629 1.66663 10.4167 2.41288 10.4167 3.33329C10.4167 3.85579 10.4167 7.39204 10.4167 7.91663C10.4167 8.83704 11.1629 9.58329 12.0834 9.58329C13.0038 9.58329 13.75 8.83704 13.75 7.91663C13.75 7.39204 13.75 3.85579 13.75 3.33329Z" fill="#33D375"/>
<path d="M17.9166 7.91667C17.9166 8.83708 17.1704 9.58333 16.25 9.58333C15.7521 9.58333 14.5833 9.58333 14.5833 9.58333C14.5833 9.58333 14.5833 8.33917 14.5833 7.91667C14.5833 6.99625 15.3296 6.25 16.25 6.25C17.1704 6.25 17.9166 6.99625 17.9166 7.91667Z" fill="#33D375"/>
<path d="M3.33335 5.83337C2.41294 5.83337 1.66669 6.57962 1.66669 7.50004C1.66669 8.42046 2.41294 9.16671 3.33335 9.16671C3.85585 9.16671 7.3921 9.16671 7.91669 9.16671C8.8371 9.16671 9.58335 8.42046 9.58335 7.50004C9.58335 6.57962 8.8371 5.83337 7.91669 5.83337C7.3921 5.83337 3.85585 5.83337 3.33335 5.83337Z" fill="#40C4FF"/>
<path d="M7.91667 1.66663C8.83708 1.66663 9.58333 2.41288 9.58333 3.33329C9.58333 3.83121 9.58333 4.99996 9.58333 4.99996C9.58333 4.99996 8.33917 4.99996 7.91667 4.99996C6.99625 4.99996 6.25 4.25371 6.25 3.33329C6.25 2.41288 6.99625 1.66663 7.91667 1.66663Z" fill="#40C4FF"/>
<path d="M5.83331 16.2524C5.83331 17.1716 6.57956 17.9166 7.49998 17.9166C8.4204 17.9166 9.16665 17.1716 9.16665 16.2524C9.16665 15.7308 9.16665 12.1995 9.16665 11.6758C9.16665 10.7566 8.4204 10.0116 7.49998 10.0116C6.57956 10.0116 5.83331 10.7566 5.83331 11.6758C5.83331 12.1995 5.83331 15.7308 5.83331 16.2524Z" fill="#E91E63"/>
<path d="M1.66669 11.6758C1.66669 10.7566 2.41294 10.0116 3.33335 10.0116C3.83127 10.0116 5.00002 10.0116 5.00002 10.0116C5.00002 10.0116 5.00002 11.2537 5.00002 11.6758C5.00002 12.5949 4.25377 13.3399 3.33335 13.3399C2.41294 13.3399 1.66669 12.5949 1.66669 11.6758Z" fill="#E91E63"/>
<path d="M16.25 13.75C17.1704 13.75 17.9167 13.0037 17.9167 12.0833C17.9167 11.1629 17.1704 10.4166 16.25 10.4166C15.7275 10.4166 12.1912 10.4166 11.6667 10.4166C10.7462 10.4166 10 11.1629 10 12.0833C10 13.0037 10.7462 13.75 11.6667 13.75C12.1908 13.75 15.7275 13.75 16.25 13.75Z" fill="#FFC107"/>
<path d="M11.6667 17.9167C10.7463 17.9167 10 17.1705 10 16.25C10 15.7521 10 14.5834 10 14.5834C10 14.5834 11.2442 14.5834 11.6667 14.5834C12.5871 14.5834 13.3333 15.3296 13.3333 16.25C13.3333 17.1705 12.5871 17.9167 11.6667 17.9167Z" fill="#FFC107"/>
</svg>
