<svg fill="none" height="20" viewBox="0 0 15 20" width="15" xmlns="http://www.w3.org/2000/svg" xmlns:xlink="http://www.w3.org/1999/xlink"><mask id="snapshot-mask-a" fill="#fff"><path d="m12.9091 15.3277 1.0909.477v-11.87125l-5.5-2.4048v.5145l-1-.43724v-1.60591l7.5 3.27928v14.05402l-2.0909-.9142z" fill="#fff"/></mask><mask id="snapshot-mask-b" fill="#fff"><path d="m8.5 16.5219 1.40912.6162v-11.87127l-5.5-2.40481v.64111l-1-.43724v-1.73252l7.49998 3.27928v14.05405l-2.4091-1.0533z" fill="#fff"/></mask><g fill="#03c7d3"><path d="m12.9091 15.3277 1.0909.477v-11.87125l-5.5-2.4048v.5145l-1-.43724v-1.60591l7.5 3.27928v14.05402l-2.0909-.9142z"/><path d="m12.9091 15.3277.4006-.9162-1.4006-.6124v1.5286zm1.0909.477-.4006.9162 1.4006.6124v-1.5286zm0-11.87125h1v-.65417l-.5994-.26207zm-5.5-2.4048.40062-.916248-1.40062-.61240198v1.52864998zm0 .5145-.40062.91624 1.40062.6124v-1.52864zm-1-.43724h-1v.65417l.59938.26207zm0-1.60591.40062-.916246-1.40062-.612404v1.52865zm7.5 3.27928h1v-.65417l-.5994-.26208zm0 14.05402-.4006.9163 1.4006.6124v-1.5287zm-2.0909-.9142h-1v.6542l.5994.2621zm-.4006-.1751 1.0909.4769.8012-1.8325-1.0909-.4769zm2.4915-.4393v-11.87125h-2v11.87125zm-.5994-12.78749-5.49998-2.404808-.80124 1.832488 5.50002 2.40481zm-6.9006-1.48856v.5145h2v-.5145zm1.40062-.40175-1-.437237-.80124 1.832487 1 .43724zm-2.40062-1.1269v1.60591h2v-1.60591zm8.9006 2.36303-7.49998-3.279276-.80124 1.832492 7.50002 3.279284zm.5994 14.97027v-14.05402h-2v14.05402zm-3.4915.0021 2.0909.9142.8012-1.8325-2.0909-.9142zm1.4006-.9163v-1.0914h-2v1.0914z" mask="url(#snapshot-mask-a)"/><path d="m8.5 16.5219 1.40912.6162v-11.87127l-5.5-2.40481v.64111l-1-.43724v-1.73252l7.49998 3.27928v14.05405l-2.4091-1.0533z"/><path d="m8.5 16.5219.40062-.9162-1.40062-.6124v1.5286zm1.40912.6162-.40062.9162 1.4006.6124v-1.5286zm0-11.87127h.99998v-.65418l-.5994-.26207zm-5.5-2.40481.40062-.91624-1.40062-.61241v1.52865zm0 .64111-.40062.91625 1.40062.6124v-1.52865zm-1-.43724h-1v.65418l.59938.26207zm0-1.73252.40062-.916242-1.40062-.612401v1.528643zm7.49998 3.27928h1v-.65417l-.5994-.26207zm0 14.05405-.4006.9163 1.4006.6124v-1.5287zm-2.4091-1.0533h-1v.6541l.59938.2621zm-.40062-.1752 1.40912.6161.8012-1.8325-1.40908-.6161zm2.80972-.3001v-11.87127h-1.99998v11.87127zm-.5994-12.78752-5.49996-2.4048-.80124 1.83249 5.5 2.4048zm-6.90058-1.48856v.64111h2v-.64111zm1.40062-.27514-1-.43723-.80124 1.83249 1 .43724zm-2.40062-1.25351v1.73252h2v-1.73252zm8.90058 2.36304-7.49996-3.279282-.80124 1.832492 7.5 3.27928zm.5994 14.97029v-14.05405h-1.99998v14.05405zm-3.80972-.1371 2.40912 1.0534.8012-1.8325-2.40908-1.0534zm1.40062-.9162v-1.0915h-2v1.0915z" mask="url(#snapshot-mask-b)"/><path d="m0 2.66663 7.5 3.27927v14.0541l-7.5-3.2793z"/></g></svg>
