<svg class="fillStd" width="16" height="16" viewBox="0 0 16 16" xmlns="http://www.w3.org/2000/svg">
  <path d="M0 2C0 1.46957 0.210714 0.960859 0.585786 0.585786C0.960859 0.210714 1.46957 0 2 0L14 0C14.5304 0 15.0391 0.210714 15.4142 0.585786C15.7893 0.960859 16 1.46957 16 2V14C16 14.5304 15.7893 15.0391 15.4142 15.4142C15.0391 15.7893 14.5304 16 14 16H2C1.46957 16 0.960859 15.7893 0.585786 15.4142C0.210714 15.0391 0 14.5304 0 14V2ZM15 2.5C15 1.67157 14.3284 1 13.5 1H11V5H15V2.5ZM15 6H11V10H15V6ZM15 11H11V15H14C14.2652 15 14.5196 14.8946 14.7071 14.7071C14.8946 14.5196 15 14.2652 15 14V11ZM10 15V11H6V15H10ZM5 15V11H1V14C1 14.2652 1.10536 14.5196 1.29289 14.7071C1.48043 14.8946 1.73478 15 2 15H5ZM1 10H5V6H1V10ZM1 5H5V1H2.5C1.67157 1 1 1.67157 1 2.5V5ZM6 1V5H10V1H6ZM10 6H6V10H10V6Z" />
</svg>
