<svg fill="none" height="21" viewBox="0 0 60 21" width="60" xmlns="http://www.w3.org/2000/svg"><rect class="fillStd" height="20" rx="10" class="strokeStd" width="59" x=".5" y=".5"/><path d="m56 10.5c0-3.58985-2.9101-6.5-6.5-6.5s-6.5 2.91015-6.5 6.5c0 3.5899 2.9101 6.5 6.5 6.5s6.5-2.9101 6.5-6.5z" class="triggerModeSvg-isManual"/><path d="m8.451 14v-6.853h.605l1.694 3.355 1.727-3.366h.583v6.864h-.726v-5.17l-1.485 2.761h-.297l-1.386-2.728v5.137zm9.581 0-.693-2.002h-2.211l-.693 2.002h-.759l2.53-6.974h.088l2.53 6.974zm-2.695-2.596h1.804l-.902-2.618zm4.213-4.257h.748l2.882 5.082v-5.082h.836v.077c-.044.044-.0733.09167-.088.143-.0073.05133-.011.13933-.011.264v6.369h-.605l-3.025-5.39v5.39h-.737zm7.711 6.974c-.726 0-1.276-.2163-1.65-.649s-.561-1.045-.561-1.837v-4.488h.858v.077c-.044.044-.0733.09167-.088.143-.0073.05133-.011.13933-.011.264v4.015c0 .5867.1137 1.0377.341 1.353s.6013.473 1.122.473c.528 0 .9057-.1577 1.133-.473.2347-.3153.352-.7773.352-1.386v-4.466h.737v4.455c0 .8433-.198 1.474-.594 1.892-.3887.418-.935.627-1.639.627zm7.271-.121-.693-2.002h-2.211l-.693 2.002h-.759l2.53-6.974h.088l2.53 6.974zm-2.695-2.596h1.804l-.902-2.618zm4.389-4.257h.902v.077c-.044.044-.0733.09167-.088.143-.0073.05133-.011.13933-.011.264v5.709h3.3v.66h-4.103z" class="triggerModeSvg-isManual"/><path d="m17 10.5c0-3.58985-2.9101-6.5-6.5-6.5-3.58985 0-6.5 2.91015-6.5 6.5 0 3.5899 2.91015 6.5 6.5 6.5 3.5899 0 6.5-2.9101 6.5-6.5z" class="triggerModeSvg-isAuto"/><path d="m27.944 14-.756-2.184h-2.412l-.756 2.184h-.828l2.76-7.608h.096l2.76 7.608zm-2.94-2.832h1.968l-.984-2.856zm7.008 2.964c-.792 0-1.392-.236-1.8-.708s-.612-1.14-.612-2.004v-4.896h.936v.084c-.048.048-.08.1-.096.156-.008.056-.012.152-.012.288v4.38c0 .64.124 1.132.372 1.476s.656.516 1.224.516c.576 0 .988-.172 1.236-.516.256-.344.384-.848.384-1.512v-4.872h.804v4.86c0 .92-.216 1.608-.648 2.064-.424.456-1.02.684-1.788.684zm5.484-.132v-6.732h-2.124v-.756h5.184v.756h-2.208v6.732zm6.504.132c-.856 0-1.516-.332-1.98-.996s-.696-1.608-.696-2.832c0-1.192.232-2.128.696-2.808.472-.68 1.132-1.02 1.98-1.02s1.504.34 1.968 1.02c.472.68.708 1.616.708 2.808 0 1.224-.232 2.168-.696 2.832s-1.124.996-1.98.996zm0-.732c.576 0 1.02-.268 1.332-.804.32-.536.48-1.3.48-2.292 0-.952-.16-1.704-.48-2.256-.32-.56-.764-.84-1.332-.84s-1.012.28-1.332.84c-.32.552-.48 1.304-.48 2.256 0 .992.156 1.756.468 2.292.32.536.768.804 1.344.804z" class="triggerModeSvg-isAuto"/></svg>