<svg width="512" height="290" viewBox="0 0 256 145" fill="none" xmlns="http://www.w3.org/2000/svg">
<path fill-rule="evenodd" clip-rule="evenodd" d="M2 41.4268C0.895431 41.4268 0 42.3222 0 43.4268V49.9952V86.7989C0 87.9035 0.895434 88.7989 2 88.7989H61.1538C62.2584 88.7989 63.1538 87.9035 63.1538 86.7989V49.9952V43.4268C63.1538 42.3222 62.2584 41.4268 61.1538 41.4268H2ZM2 43.4268L61.1538 43.4268L61.1538 48.9952H2V43.4268ZM2 50.9952H61.1538V86.7989H2V50.9952ZM4.94541 47.3462C4.68896 47.3462 4.43152 47.2377 4.2451 47.0601C4.06657 46.8727 3.95906 46.6163 3.95906 46.3598C3.95906 46.1034 4.06657 45.8469 4.2451 45.6595C4.61991 45.2946 5.2709 45.2946 5.64572 45.6595C5.83214 45.8469 5.93176 46.1034 5.93176 46.3598C5.93176 46.6163 5.82326 46.8727 5.64572 47.0601C5.45831 47.2377 5.20186 47.3462 4.94541 47.3462ZM19.1432 77.1545L29.79 58.7087C30.9446 56.7083 33.8319 56.7083 34.9865 58.7087L45.6333 77.1545C46.7877 79.1545 45.3443 81.6542 43.035 81.6542H21.7415C19.4322 81.6542 17.9888 79.1545 19.1432 77.1545ZM20.8754 78.1543L31.5222 59.7085C31.9071 59.0417 32.8695 59.0417 33.2543 59.7085L43.9011 78.1543C44.2859 78.821 43.8048 79.6542 43.035 79.6542H21.7415C20.9717 79.6542 20.4906 78.821 20.8754 78.1543ZM32.5633 76.9367C32.3068 76.9367 32.0494 76.8282 31.8629 76.6507C31.6844 76.4633 31.5769 76.2068 31.5769 75.9504C31.5769 75.6939 31.6844 75.4375 31.8629 75.2501C32.2378 74.8851 32.8888 74.8851 33.2636 75.2501C33.45 75.4375 33.5496 75.6939 33.5496 75.9504C33.5496 76.2068 33.4411 76.4633 33.2636 76.6507C33.0762 76.8282 32.8197 76.9367 32.5633 76.9367ZM33.4021 66.1124C33.4021 65.5602 32.9544 65.1124 32.4021 65.1124C31.8498 65.1124 31.4021 65.5602 31.4021 66.1124V72.0032C31.4021 72.5555 31.8498 73.0033 32.4021 73.0033C32.9544 73.0033 33.4021 72.5555 33.4021 72.0033V66.1124ZM8.19051 47.0601C8.37693 47.2377 8.63436 47.3462 8.89081 47.3462C9.14727 47.3462 9.40372 47.2377 9.59112 47.0601C9.76867 46.8727 9.87716 46.6163 9.87716 46.3598C9.87716 46.1034 9.77754 45.8469 9.59112 45.6595C9.21631 45.2946 8.56532 45.2946 8.19051 45.6595C8.01198 45.8469 7.90446 46.1034 7.90446 46.3598C7.90446 46.6163 8.01198 46.8727 8.19051 47.0601ZM12.8362 47.3462C12.5798 47.3462 12.3223 47.2377 12.1359 47.0601C11.9574 46.8727 11.8499 46.6163 11.8499 46.3598C11.8499 46.1034 11.9574 45.8469 12.1359 45.6595C12.5107 45.2946 13.1617 45.2946 13.5365 45.6595C13.7229 45.8469 13.8226 46.1034 13.8226 46.3598C13.8226 46.6163 13.7141 46.8727 13.5365 47.0601C13.3491 47.2377 13.0927 47.3462 12.8362 47.3462Z" fill="#20BA31"/>
<path d="M73.0037 68.0719H113.937M113.937 68.0719L107.033 61.1675M113.937 68.0719L107.033 74.9764" stroke="#FCB41E" stroke-width="2" stroke-linecap="round"/>
<path d="M179.48 45.879L195.804 29.5546M195.804 29.5546H186.04M195.804 29.5546V39.319" stroke="#FCB41E" stroke-width="2" stroke-linecap="round"/>
<path d="M196.298 71.0313L219.383 71.031M219.383 71.031L212.479 64.1265M219.383 71.031L212.479 77.9354" stroke="#FCB41E" stroke-width="2" stroke-linecap="round"/>
<path d="M179.48 96.6269L195.804 112.951M195.804 112.951V103.186M195.804 112.951H186.04" stroke="#FCB41E" stroke-width="2" stroke-linecap="round"/>
<path fill-rule="evenodd" clip-rule="evenodd" d="M198.284 15.5677C198.284 8.07445 204.359 2 211.852 2C219.345 2 225.419 8.07445 225.419 15.5677C225.419 23.0609 219.345 29.1353 211.852 29.1353C204.359 29.1353 198.284 23.0609 198.284 15.5677ZM211.852 0C203.254 0 196.284 6.96988 196.284 15.5677C196.284 24.1654 203.254 31.1353 211.852 31.1353C220.449 31.1353 227.419 24.1654 227.419 15.5677C227.419 6.96988 220.449 0 211.852 0ZM216.04 18.3272C216.518 18.6694 216.942 19.183 217.157 20.0655C217.251 20.4544 217.305 20.915 217.305 21.4641C217.305 21.6241 217.307 21.7596 217.308 21.8811V21.8812V21.8813L217.308 21.8817L217.308 21.882L217.308 21.9724L217.309 22.0655H217.309H215.309H208.568H206.568H206.568H206.568L206.568 21.9664L206.569 21.8673V21.8672C206.57 21.7489 206.571 21.6175 206.571 21.4641C206.571 20.915 206.625 20.4544 206.72 20.0655C206.934 19.183 207.359 18.6694 207.836 18.3272C208.652 17.7428 209.995 17.3943 211.938 17.3943C213.639 17.3943 214.879 17.6611 215.709 18.1193C215.828 18.1848 215.938 18.2541 216.04 18.3272ZM219.309 22.0561L219.308 21.9908L219.307 21.8199C219.306 21.7036 219.305 21.5848 219.305 21.4641C219.305 20.3113 219.108 19.3554 218.747 18.57C218.386 17.7859 217.861 17.1718 217.205 16.7014C216.216 15.9927 214.927 15.6102 213.45 15.4645C212.965 15.4166 212.46 15.3943 211.938 15.3943H211.938C211.416 15.3943 210.911 15.4166 210.426 15.4645C208.949 15.6102 207.661 15.9927 206.672 16.7014C206.015 17.1718 205.49 17.7859 205.129 18.57C204.768 19.3554 204.571 20.3113 204.571 21.4641L204.571 21.4696C204.571 21.5842 204.57 21.697 204.569 21.8077V21.8077L204.568 21.9865L204.568 22.0582C204.565 23.2067 204.632 24.0655 205.734 24.0655H206.568H217.309H218.142C219.25 24.0655 219.313 23.2076 219.309 22.0561ZM215.84 9.75793C215.84 11.4581 214.753 12.9044 213.236 13.4391C212.83 13.5822 212.393 13.66 211.938 13.66C211.483 13.66 211.047 13.5822 210.641 13.4391C209.124 12.9044 208.036 11.4581 208.036 9.75793C208.036 7.60288 209.783 5.85587 211.938 5.85587C214.093 5.85587 215.84 7.60288 215.84 9.75793ZM213.84 9.75793C213.84 10.8084 212.989 11.66 211.938 11.66C210.888 11.66 210.036 10.8084 210.036 9.75793C210.036 8.70745 210.888 7.85587 211.938 7.85587C212.989 7.85587 213.84 8.70745 213.84 9.75793Z" fill="#6378BA"/>
<path fill-rule="evenodd" clip-rule="evenodd" d="M225.902 70.8034C225.902 63.3102 231.976 57.2357 239.47 57.2357C246.963 57.2357 253.037 63.3102 253.037 70.8034C253.037 78.2966 246.963 84.371 239.47 84.371C231.976 84.371 225.902 78.2966 225.902 70.8034ZM239.47 55.2357C230.872 55.2357 223.902 62.2056 223.902 70.8034C223.902 79.4012 230.872 86.371 239.47 86.371C248.067 86.371 255.037 79.4012 255.037 70.8034C255.037 62.2056 248.067 55.2357 239.47 55.2357ZM243.658 73.5629C244.135 73.9051 244.56 74.4187 244.775 75.3012C244.869 75.6901 244.923 76.1507 244.923 76.6999C244.923 76.8598 244.924 76.9953 244.925 77.1169V77.1169V77.117L244.925 77.1175L244.925 77.1178L244.926 77.2081L244.927 77.3012L244.926 77.3012L242.927 77.3012H236.186L234.186 77.3012L234.186 77.3012L234.186 77.2021L234.187 77.103V77.1029C234.188 76.9846 234.189 76.8532 234.189 76.6999C234.189 76.1507 234.243 75.6901 234.337 75.3012C234.475 74.7366 234.698 74.3229 234.966 74.0086C235.117 73.8317 235.282 73.6862 235.454 73.5629C236.27 72.9785 237.612 72.63 239.556 72.63C241.5 72.63 242.842 72.9785 243.658 73.5629ZM246.926 77.2918L246.926 77.2265L246.925 77.0556C246.924 76.9393 246.923 76.8205 246.923 76.6999C246.923 75.547 246.726 74.5911 246.365 73.8057C246.004 73.0216 245.479 72.4075 244.823 71.9371C243.833 71.2284 242.545 70.846 241.068 70.7002C240.583 70.6523 240.078 70.63 239.556 70.63H239.556C239.034 70.63 238.529 70.6523 238.044 70.7002C236.567 70.846 235.279 71.2284 234.289 71.9371C233.633 72.4075 233.108 73.0215 232.747 73.8055C232.386 74.591 232.189 75.5469 232.189 76.6999C232.189 76.8163 232.188 76.931 232.187 77.0435L232.186 77.2223L232.186 77.2939C232.183 78.4424 232.25 79.3012 233.352 79.3012H234.186H244.927H245.76C246.867 79.3012 246.931 78.4434 246.926 77.2918ZM243.458 64.9937C243.458 66.6939 242.371 68.1401 240.853 68.6748C240.447 68.8179 240.011 68.8957 239.556 68.8957C239.101 68.8957 238.665 68.8179 238.259 68.6748C236.741 68.1401 235.654 66.6939 235.654 64.9937C235.654 62.8386 237.401 61.0916 239.556 61.0916C241.711 61.0916 243.458 62.8386 243.458 64.9937ZM241.458 64.9937C241.458 66.0441 240.606 66.8957 239.556 66.8957C238.506 66.8957 237.654 66.0441 237.654 64.9937C237.654 63.9432 238.506 63.0916 239.556 63.0916C240.606 63.0916 241.458 63.9432 241.458 64.9937Z" fill="#03C7D3"/>
<path fill-rule="evenodd" clip-rule="evenodd" d="M198.284 128.998C198.284 121.505 204.359 115.43 211.852 115.43C219.345 115.43 225.419 121.505 225.419 128.998C225.419 136.491 219.345 142.566 211.852 142.566C204.359 142.566 198.284 136.491 198.284 128.998ZM211.852 113.43C203.254 113.43 196.284 120.4 196.284 128.998C196.284 137.596 203.254 144.566 211.852 144.566C220.449 144.566 227.419 137.596 227.419 128.998C227.419 120.4 220.449 113.43 211.852 113.43ZM216.04 131.758C216.518 132.1 216.942 132.613 217.157 133.496C217.251 133.885 217.305 134.345 217.305 134.895C217.305 135.055 217.307 135.19 217.308 135.312V135.312V135.312L217.308 135.312L217.308 135.403L217.309 135.496H217.309H215.309H208.568H206.568H206.568L206.568 135.397L206.569 135.298V135.298C206.57 135.179 206.571 135.048 206.571 134.895C206.571 134.345 206.625 133.885 206.72 133.496C206.857 132.931 207.08 132.518 207.348 132.203C207.499 132.026 207.664 131.881 207.836 131.758C208.652 131.173 209.995 130.825 211.938 130.825C213.882 130.825 215.224 131.173 216.04 131.758ZM219.309 135.487L219.308 135.422L219.307 135.25C219.306 135.134 219.305 135.015 219.305 134.895C219.305 133.742 219.108 132.786 218.747 132C218.388 131.221 217.867 130.609 217.216 130.14L217.205 130.132C216.216 129.423 214.927 129.041 213.45 128.895C212.965 128.847 212.46 128.825 211.938 128.825H211.938C211.416 128.825 210.911 128.847 210.426 128.895C208.949 129.041 207.661 129.423 206.672 130.132C206.015 130.602 205.49 131.216 205.129 132C204.768 132.786 204.571 133.742 204.571 134.895L204.571 134.9C204.571 135.015 204.57 135.127 204.569 135.238V135.238L204.568 135.417L204.568 135.489C204.565 136.637 204.632 137.496 205.734 137.496H206.568H217.309H218.142C219.25 137.496 219.313 136.638 219.309 135.487ZM215.84 123.188C215.84 124.889 214.753 126.335 213.236 126.87C212.83 127.013 212.393 127.09 211.938 127.09C211.483 127.09 211.047 127.013 210.641 126.87C209.124 126.335 208.036 124.889 208.036 123.188C208.036 121.033 209.783 119.286 211.938 119.286C214.093 119.286 215.84 121.033 215.84 123.188ZM213.84 123.188C213.84 124.239 212.989 125.09 211.938 125.09C210.888 125.09 210.036 124.239 210.036 123.188C210.036 122.138 210.888 121.286 211.938 121.286C212.989 121.286 213.84 122.138 213.84 123.188Z" fill="#EF5AA0"/>
<path fill-rule="evenodd" clip-rule="evenodd" d="M137.336 62.0463C136.649 51.7078 145.347 42.4404 155.77 42.4404C163.053 42.4404 169.628 46.7815 172.592 53.4062C172.924 54.1468 173.656 54.6191 174.456 54.6317C183.168 54.7681 190.366 62.5253 190.366 71.2107C190.366 75.384 189.068 79.5477 186.58 82.6473C184.111 85.7236 180.448 87.7853 175.584 87.7853H141.652C134.815 87.7853 129.239 82.1808 129.239 75.2745C129.239 70.4464 131.968 66.1304 136.172 64.0574C136.922 63.6871 137.393 62.8966 137.336 62.0463ZM155.77 40.4404C144.198 40.4404 134.576 50.6779 135.34 62.1789C135.341 62.1922 135.338 62.2079 135.329 62.2245C135.319 62.2415 135.304 62.2551 135.287 62.2636C130.401 64.6734 127.239 69.6846 127.239 75.2745C127.239 83.2718 133.697 89.7853 141.652 89.7853H175.584C181.081 89.7853 185.309 87.4267 188.14 83.8992C190.953 80.395 192.366 75.7714 192.366 71.2107C192.366 61.5024 184.36 52.7865 174.487 52.6319C174.453 52.6314 174.427 52.6104 174.418 52.5893C171.137 45.2575 163.855 40.4404 155.77 40.4404ZM156.043 57.7224L145.396 76.1682C144.242 78.1682 145.685 80.6679 147.994 80.6679H169.288C171.597 80.6679 173.041 78.1682 171.886 76.1682L161.24 57.7224C160.085 55.722 157.198 55.722 156.043 57.7224ZM157.775 58.7222L147.128 77.168C146.744 77.8346 147.225 78.6679 147.994 78.6679H169.288C170.058 78.6679 170.539 77.8346 170.154 77.168L159.507 58.7222C159.122 58.0554 158.16 58.0554 157.775 58.7222ZM158.116 75.6644C158.302 75.8419 158.56 75.9504 158.816 75.9504C159.073 75.9504 159.329 75.8419 159.517 75.6644C159.694 75.477 159.803 75.2205 159.803 74.9641C159.803 74.7076 159.703 74.4512 159.517 74.2637C159.142 73.8988 158.491 73.8988 158.116 74.2637C157.937 74.4512 157.83 74.7076 157.83 74.9641C157.83 75.2205 157.937 75.477 158.116 75.6644ZM158.655 64.1261C159.207 64.1261 159.655 64.5738 159.655 65.1261V71.0169C159.655 71.5692 159.207 72.0169 158.655 72.0169C158.103 72.0169 157.655 71.5692 157.655 71.0169V65.1261C157.655 64.5738 158.103 64.1261 158.655 64.1261Z" fill="#20BA31"/>
</svg>
